<svg xmlns="http://www.w3.org/2000/svg" width="13.942" height="16.734" viewBox="0 0 13.942 16.734">
  <g id="Icon_ionic-logo-apple" data-name="Icon ionic-logo-apple" transform="translate(-6.748 -4.5)">
    <path id="패스_2289" data-name="패스 2289" d="M17.1,10.821c-1.464,0-2.082.719-3.1.719-1.046,0-1.843-.714-3.111-.714a4.226,4.226,0,0,0-3.407,2.109c-1.181,1.873-.98,5.4.932,8.408.684,1.076,1.6,2.283,2.8,2.3h.022c1.041,0,1.351-.7,2.784-.71h.022c1.412,0,1.695.706,2.732.706h.022c1.2-.013,2.161-1.351,2.845-2.422a11.916,11.916,0,0,0,1.054-2.03,3.728,3.728,0,0,1-.475-6.661,4.1,4.1,0,0,0-3.115-1.7Z" transform="translate(0 -2.405)"/>
    <path id="패스_2290" data-name="패스 2290" d="M20.89,4.5a3.81,3.81,0,0,0-2.483,1.377,3.465,3.465,0,0,0-.81,2.649h.07A3.234,3.234,0,0,0,20.1,7.214,3.711,3.711,0,0,0,20.89,4.5Z" transform="translate(-4.112)"/>
  </g>
</svg>
