<svg id="그룹_94" data-name="그룹 94" xmlns="http://www.w3.org/2000/svg" width="14.666" height="14.667" viewBox="0 0 14.666 14.667">
  <path id="패스_2140" data-name="패스 2140" d="M3.25,143.17l-.511,1.906-1.866.039a7.346,7.346,0,0,1-.054-6.848h0l1.661.3.728,1.651a4.377,4.377,0,0,0,.041,2.947Z" transform="translate(0 -134.307)" fill="#fbbb00"/>
  <path id="패스_2141" data-name="패스 2141" d="M268.672,208.176a7.33,7.33,0,0,1-2.614,7.089h0l-2.092-.107-.3-1.849a4.37,4.37,0,0,0,1.88-2.232h-3.921v-2.9h7.044Z" transform="translate(-254.134 -202.213)" fill="#518ef8"/>
  <path id="패스_2142" data-name="패스 2142" d="M41.559,313.6h0a7.336,7.336,0,0,1-11.05-2.243l2.376-1.945a4.361,4.361,0,0,0,6.285,2.233Z" transform="translate(-29.635 -300.546)" fill="#28b446"/>
  <path id="패스_2143" data-name="패스 2143" d="M39.818,1.688,37.442,3.633a4.361,4.361,0,0,0-6.429,2.283L28.624,3.961h0A7.335,7.335,0,0,1,39.818,1.688Z" transform="translate(-27.804)" fill="#f14336"/>
</svg>
