<svg id="그룹_96" data-name="그룹 96" xmlns="http://www.w3.org/2000/svg" width="13.708" height="13.708" viewBox="0 0 13.708 13.708">
  <path id="패스_2145" data-name="패스 2145" d="M77.966,220.441a3.564,3.564,0,1,0-3.3-3.554A3.438,3.438,0,0,0,77.966,220.441Zm0-6.092a2.545,2.545,0,1,1-2.357,2.538A2.455,2.455,0,0,1,77.966,214.348Z" transform="translate(-71.112 -213.333)" fill="#393939"/>
  <path id="패스_2146" data-name="패스 2146" d="M12.117,385.453A11.434,11.434,0,0,0,6.854,384a11.434,11.434,0,0,0-5.263,1.453A3.064,3.064,0,0,0,0,388.168v.465a1.432,1.432,0,0,0,1.4,1.46h10.91a1.432,1.432,0,0,0,1.4-1.46v-.465A3.063,3.063,0,0,0,12.117,385.453Zm.612,3.18a.433.433,0,0,1-.42.444H1.4a.433.433,0,0,1-.42-.444v-.465a2.046,2.046,0,0,1,1.063-1.814,10.481,10.481,0,0,1,4.812-1.339,10.481,10.481,0,0,1,4.812,1.339,2.046,2.046,0,0,1,1.063,1.814Z" transform="translate(0 -376.384)" fill="#393939"/>
</svg>
