<svg xmlns="http://www.w3.org/2000/svg" width="23.77" height="10.665" viewBox="0 0 23.77 10.665">
  <path id="Icon_ionic-ios-infinite" data-name="Icon ionic-ios-infinite" d="M23.869,12.246a5.546,5.546,0,0,0-7.708,0l-1.6,1.538a.2.2,0,0,0,0,.292l.994.979a.207.207,0,0,0,.287,0l1.589-1.543a3.714,3.714,0,0,1,5.156,0,3.485,3.485,0,0,1,0,5.007,3.714,3.714,0,0,1-5.156,0l-6.437-6.273a5.546,5.546,0,0,0-7.708,0,5.249,5.249,0,0,0,0,7.544,5.546,5.546,0,0,0,7.708,0l1.589-1.538a.2.2,0,0,0,0-.292l-.994-.969a.207.207,0,0,0-.287,0L9.713,18.524a3.714,3.714,0,0,1-5.156,0,3.485,3.485,0,0,1,0-5.007,3.714,3.714,0,0,1,5.156,0l6.432,6.278a5.546,5.546,0,0,0,7.708,0,5.261,5.261,0,0,0,.015-7.549Z" transform="translate(-1.688 -10.688)" fill="#fff"/>
</svg>
