<svg xmlns="http://www.w3.org/2000/svg" width="17.281" height="17.281" viewBox="0 0 17.281 17.281">
  <g id="그룹_132" data-name="그룹 132" transform="translate(-303.5 -1240)">
    <path id="Icon_ionic-ios-paper" data-name="Icon ionic-ios-paper" d="M6.532,4.7V18.081a.583.583,0,0,1-.582.582h0a.583.583,0,0,1-.582-.582V6.034H4.7A1.328,1.328,0,0,0,3.375,7.363V19.327A1.328,1.328,0,0,0,4.7,20.656H19.373a1.284,1.284,0,0,0,1.284-1.284V4.7a1.328,1.328,0,0,0-1.329-1.329L7.778,3.458A1.191,1.191,0,0,0,6.532,4.7ZM9.274,6.034h3.49a.583.583,0,0,1,.582.582h0a.583.583,0,0,1-.582.582H9.274a.583.583,0,0,1-.582-.582h0A.583.583,0,0,1,9.274,6.034Zm0,6.647h6.148a.583.583,0,0,1,.582.582h0a.583.583,0,0,1-.582.582H9.274a.583.583,0,0,1-.582-.582h0A.583.583,0,0,1,9.274,12.68Zm8.142,4.487H9.274a.583.583,0,0,1-.582-.582h0A.583.583,0,0,1,9.274,16h8.142a.583.583,0,0,1,.582.582h0A.583.583,0,0,1,17.416,17.167Zm0-6.647H9.274a.583.583,0,0,1-.582-.582h0a.583.583,0,0,1,.582-.582h8.142A.583.583,0,0,1,18,9.939h0A.583.583,0,0,1,17.416,10.52Z" transform="translate(300.125 1236.625)" fill="#fff"/>
  </g>
</svg>
