<svg xmlns="http://www.w3.org/2000/svg" width="27" height="27" viewBox="0 0 27 27">
  <path id="Icon_ionic-ios-paper" data-name="Icon ionic-ios-paper" d="M8.308,5.452v20.9a.911.911,0,0,1-.909.909h0a.911.911,0,0,1-.909-.909V7.529H5.452A2.075,2.075,0,0,0,3.375,9.606V28.3a2.075,2.075,0,0,0,2.077,2.077H28.369a2.007,2.007,0,0,0,2.006-2.006V5.452A2.075,2.075,0,0,0,28.3,3.375L10.255,3.5A1.86,1.86,0,0,0,8.308,5.452Zm4.284,2.077h5.452a.911.911,0,0,1,.909.909h0a.911.911,0,0,1-.909.909H12.591a.911.911,0,0,1-.909-.909h0A.911.911,0,0,1,12.591,7.529Zm0,10.385H22.2a.911.911,0,0,1,.909.909h0a.911.911,0,0,1-.909.909H12.591a.911.911,0,0,1-.909-.909h0A.911.911,0,0,1,12.591,17.913Zm12.721,7.01H12.591a.911.911,0,0,1-.909-.909h0a.911.911,0,0,1,.909-.909H25.312a.911.911,0,0,1,.909.909h0A.911.911,0,0,1,25.312,24.923Zm0-10.385H12.591a.911.911,0,0,1-.909-.909h0a.911.911,0,0,1,.909-.909H25.312a.911.911,0,0,1,.909.909h0A.911.911,0,0,1,25.312,14.538Z" transform="translate(-3.375 -3.375)" fill="#393939"/>
</svg>
