<svg xmlns="http://www.w3.org/2000/svg" width="14.08" height="24.64" viewBox="0 0 14.08 24.64">
  <path id="Icon_ionic-md-microphone" data-name="Icon ionic-md-microphone" d="M23.08,6.65V5.132A2.947,2.947,0,0,0,20.066,2.25H12.019A2.948,2.948,0,0,0,9,5.132V6.65h8.36V8.685H9V11.05h8.36v2.035H9V15.45h8.36v2.035H9v2.3a2.939,2.939,0,0,0,3.019,2.871h1.655V26.89H18.4V22.655h1.661a2.938,2.938,0,0,0,3.014-2.871v-2.3H20V15.45h3.08V13.085H20V11.05h3.08V8.685H20V6.65Z" transform="translate(-9 -2.25)" fill="#f2efef"/>
</svg>
