<svg xmlns="http://www.w3.org/2000/svg" width="35.26" height="44.075" viewBox="0 0 35.26 44.075">
  <g id="Icon_ionic-ios-pause" data-name="Icon ionic-ios-pause" transform="translate(-9 -6.75)">
    <path id="패스_2291" data-name="패스 2291" d="M18.9,50.825H10.116A1.108,1.108,0,0,1,9,49.723V7.852a1.108,1.108,0,0,1,1.116-1.1H18.9a1.108,1.108,0,0,1,1.116,1.1V49.723A1.108,1.108,0,0,1,18.9,50.825Z" transform="translate(0 0)" fill="#fff"/>
    <path id="패스_2292" data-name="패스 2292" d="M31.278,50.825H22.491a1.108,1.108,0,0,1-1.116-1.1V7.852a1.108,1.108,0,0,1,1.116-1.1h8.788a1.108,1.108,0,0,1,1.116,1.1V49.723A1.108,1.108,0,0,1,31.278,50.825Z" transform="translate(11.866 0)" fill="#fff"/>
  </g>
</svg>
