<svg xmlns="http://www.w3.org/2000/svg" width="19.118" height="23.898" viewBox="0 0 19.118 23.898">
  <g id="Icon_ionic-ios-pause" data-name="Icon ionic-ios-pause" transform="translate(-9 -6.75)">
    <path id="패스_2291" data-name="패스 2291" d="M14.37,30.648H9.6a.6.6,0,0,1-.6-.6V7.347a.6.6,0,0,1,.6-.6H14.37a.6.6,0,0,1,.6.6v22.7A.6.6,0,0,1,14.37,30.648Z" transform="translate(0 0)" fill="#393939"/>
    <path id="패스_2292" data-name="패스 2292" d="M26.745,30.648H21.98a.6.6,0,0,1-.6-.6V7.347a.6.6,0,0,1,.6-.6h4.765a.6.6,0,0,1,.6.6v22.7A.6.6,0,0,1,26.745,30.648Z" transform="translate(0.769 0)" fill="#393939"/>
  </g>
</svg>
