<svg xmlns="http://www.w3.org/2000/svg" width="12.761" height="12.761" viewBox="0 0 12.761 12.761">
  <g id="그룹_315" data-name="그룹 315" transform="translate(-324.119 -472.119)">
    <path id="Icon_ionic-ios-list-box" data-name="Icon ionic-ios-list-box" d="M3.375,4.439V15.072a1.065,1.065,0,0,0,1.064,1.064H15.072a1.065,1.065,0,0,0,1.064-1.064V4.439a1.065,1.065,0,0,0-1.064-1.064H4.439A1.063,1.063,0,0,0,3.375,4.439Zm2.739,9.112a.612.612,0,1,1,.528-.528A.611.611,0,0,1,6.114,13.551Zm0-3.19a.612.612,0,1,1,.528-.528A.611.611,0,0,1,6.114,10.361Zm0-3.19a.612.612,0,1,1,.528-.528A.611.611,0,0,1,6.114,7.172Zm7.588,6.2H8.181a.431.431,0,0,1-.429-.429h0a.431.431,0,0,1,.429-.429H13.7a.431.431,0,0,1,.429.429h0A.431.431,0,0,1,13.7,13.373Zm0-3.19H8.181a.431.431,0,0,1-.429-.429h0a.431.431,0,0,1,.429-.429H13.7a.431.431,0,0,1,.429.429h0A.431.431,0,0,1,13.7,10.184Zm0-3.19H8.181a.431.431,0,0,1-.429-.429h0a.431.431,0,0,1,.429-.429H13.7a.431.431,0,0,1,.429.429h0A.431.431,0,0,1,13.7,6.994Z" transform="translate(320.744 468.744)" fill="#fff"/>
  </g>
</svg>
