<svg id="그룹_97" data-name="그룹 97" xmlns="http://www.w3.org/2000/svg" width="11.995" height="13.708" viewBox="0 0 11.995 13.708">
  <ellipse id="타원_3" data-name="타원 3" cx="0.803" cy="0.803" rx="0.803" ry="0.803" transform="translate(2.342 8.358)" fill="#393939"/>
  <ellipse id="타원_1" data-name="타원 1" cx="0.803" cy="0.803" rx="0.803" ry="0.803" transform="translate(8.097 8.358)" fill="#393939"/>
  <path id="패스_2063" data-name="패스 2063" d="M256.959,256.1a.536.536,0,0,0,.536-.536v-4.391a2.144,2.144,0,0,0-2.142-2.142h-.644v-1.889a3.214,3.214,0,0,0-6.426,0v1.889h-.641a2.144,2.144,0,0,0-2.142,2.142v4.391a2.144,2.144,0,0,0,2.142,2.142h7.711a2.144,2.144,0,0,0,2.142-2.142.535.535,0,0,0-1.071,0,1.072,1.072,0,0,1-1.071,1.071h-7.711a1.072,1.072,0,0,1-1.071-1.071v-4.391a1.072,1.072,0,0,1,1.071-1.071h7.711a1.072,1.072,0,0,1,1.071,1.071v4.391A.536.536,0,0,0,256.959,256.1Zm-3.321-7.068h-4.284v-1.889a2.143,2.143,0,0,1,4.284,0Z" transform="translate(-245.5 -244)" fill="#393939"/>
  <ellipse id="타원_4" data-name="타원 4" cx="0.803" cy="0.803" rx="0.803" ry="0.803" transform="translate(5.305 8.358)" fill="#393939"/>
</svg>
