<svg xmlns="http://www.w3.org/2000/svg" width="21.393" height="15.146" viewBox="0 0 21.393 15.146">
  <g id="Icon_ionic-ios-repeat" data-name="Icon ionic-ios-repeat" transform="translate(0)">
    <path id="패스_2293" data-name="패스 2293" d="M19.687,10.527,17.815,8.666a.78.78,0,0,0-.758-.2.666.666,0,0,0-.195.084.777.777,0,0,0-.379.73.817.817,0,0,0,.24.507l.891.886H8.846A4.356,4.356,0,0,0,4.5,15.012V15.9a.782.782,0,0,0,.78.78h0a.782.782,0,0,0,.78-.78v-.891a2.8,2.8,0,0,1,2.786-2.786H17.5l-.891.886a.79.79,0,0,0-.24.485.786.786,0,0,0,.78.858.771.771,0,0,0,.552-.228l1.983-1.972a1.205,1.205,0,0,0,.362-.864A1.242,1.242,0,0,0,19.687,10.527Z" transform="translate(-4.5 -8.439)" fill="#fff"/>
    <path id="패스_2294" data-name="패스 2294" d="M26.645,17.156h0a.782.782,0,0,0-.78.78v.891a2.8,2.8,0,0,1-2.786,2.786H14.422l.891-.886a.79.79,0,0,0,.24-.49.786.786,0,0,0-.78-.858.771.771,0,0,0-.552.228L12.238,21.58a1.211,1.211,0,0,0,0,1.727l1.872,1.861a.78.78,0,0,0,.758.2.666.666,0,0,0,.195-.084.777.777,0,0,0,.379-.73.817.817,0,0,0-.24-.507l-.891-.886h8.769a4.351,4.351,0,0,0,4.346-4.346v-.891A.78.78,0,0,0,26.645,17.156Z" transform="translate(-6.032 -10.249)" fill="#fff"/>
  </g>
</svg>
