<svg xmlns="http://www.w3.org/2000/svg" width="24.382" height="22.022" viewBox="0 0 24.382 22.022">
  <path id="Icon_metro-shuffle" data-name="Icon metro-shuffle" d="M21.447,19.764H18.952L15.02,15.831,18.952,11.9h2.494v3.933l5.506-5.506L21.447,4.82V8.753H18.3a1.573,1.573,0,0,0-1.112.461L12.8,13.607,8.4,9.213A1.573,1.573,0,0,0,7.29,8.753H2.571V11.9H6.638l3.933,3.933L6.638,19.764H2.571V22.91H7.29A1.573,1.573,0,0,0,8.4,22.449L12.8,18.056l4.393,4.393a1.573,1.573,0,0,0,1.112.461h3.146v3.933l5.506-5.506-5.506-5.506v3.933Z" transform="translate(-2.571 -4.82)" fill="#f2efef"/>
</svg>
