<svg xmlns="http://www.w3.org/2000/svg" width="21.393" height="15.154" viewBox="0 0 21.393 15.154">
  <g id="Icon_ionic-ios-shuffle" data-name="Icon ionic-ios-shuffle" transform="translate(0 0)">
    <path id="패스_2295" data-name="패스 2295" d="M23.548,18.445A.785.785,0,0,0,23,18.217a.771.771,0,0,0-.552.228.762.762,0,0,0-.228.552.8.8,0,0,0,.228.552l.908.9H19.147l-6.908-8.635-.006-.006a.8.8,0,0,0-.6-.279H5.28a.78.78,0,1,0,0,1.56h5.983l2.925,3.677-2.925,3.677H5.28a.78.78,0,1,0,0,1.56h6.351a.778.778,0,0,0,.6-.279l.006-.006L15.2,18l2.964,3.722.006.006a.778.778,0,0,0,.6.279h4.7l-.908.9a.753.753,0,0,0-.228.552.8.8,0,0,0,.228.552.785.785,0,0,0,.552.228.771.771,0,0,0,.552-.228l1.872-1.861a1.211,1.211,0,0,0,0-1.727Z" transform="translate(-4.5 -9.086)" fill="#fff"/>
    <path id="패스_2296" data-name="패스 2296" d="M19.472,14.868a.32.32,0,0,0,.256.117h.006a.325.325,0,0,0,.256-.123L22.1,12.227h4.223l-.908.9a.753.753,0,0,0-.228.552.8.8,0,0,0,.228.552.785.785,0,0,0,.552.228.771.771,0,0,0,.552-.228L28.5,12.261a1.211,1.211,0,0,0,0-1.727L26.631,8.673a.785.785,0,0,0-.552-.228.771.771,0,0,0-.552.228.762.762,0,0,0-.228.552.8.8,0,0,0,.228.552l.908.9h-4.7a.778.778,0,0,0-.6.279l-.006.006-2.245,2.8a.329.329,0,0,0,.006.423Z" transform="translate(-7.472 -8.445)" fill="#fff"/>
  </g>
</svg>
