<svg xmlns="http://www.w3.org/2000/svg" width="18.904" height="15.794" viewBox="0 0 18.904 15.794">
  <g id="그룹_187" data-name="그룹 187" transform="translate(-44.248 -712.21)">
    <g id="Icon_ionic-ios-volume-high" data-name="Icon ionic-ios-volume-high" transform="translate(39.713 705.458)">
      <path id="패스_2284" data-name="패스 2284" d="M11.983,10.2a.764.764,0,0,0-.341-.079.791.791,0,0,0-.494.173l-3.218,2.6H5.325a.792.792,0,0,0-.79.79v3.949a.792.792,0,0,0,.79.79H7.931l3.218,2.591a.8.8,0,0,0,.494.173.764.764,0,0,0,.341-.079.789.789,0,0,0,.449-.711V10.913A.791.791,0,0,0,11.983,10.2Z" transform="translate(0 -1.003)" fill="#fff"/>
      <path id="패스_2285" data-name="패스 2285" d="M29.665,14.648a10.775,10.775,0,0,0-3.228-7.725.593.593,0,0,0-.834.844,9.591,9.591,0,0,1,2.873,6.881h0A9.611,9.611,0,0,1,25.6,21.528a.593.593,0,0,0,0,.839.579.579,0,0,0,.42.178.591.591,0,0,0,.415-.173,10.752,10.752,0,0,0,3.233-7.725Z" transform="translate(-6.226)" fill="#fff"/>
      <path id="패스_2286" data-name="패스 2286" d="M25.652,15.517h0a8.016,8.016,0,0,0-2.31-5.671.593.593,0,1,0-.844.834,6.852,6.852,0,0,1,1.969,4.842h0A6.852,6.852,0,0,1,22.5,20.365a.595.595,0,0,0,.42,1.012.579.579,0,0,0,.42-.178,8.061,8.061,0,0,0,2.315-5.681Z" transform="translate(-5.302 -0.87)" fill="#fff"/>
      <path id="패스_2287" data-name="패스 2287" d="M19.784,12.757a.593.593,0,1,0-.844.834,3.95,3.95,0,0,1,1.135,2.794h0a3.967,3.967,0,0,1-1.135,2.794.595.595,0,0,0,.42,1.012.579.579,0,0,0,.42-.178,5.123,5.123,0,0,0,1.476-3.623h0A5.112,5.112,0,0,0,19.784,12.757Z" transform="translate(-4.242 -1.737)" fill="#fff"/>
    </g>
  </g>
</svg>
